<mxfile host="app.diagrams.net" modified="2023-06-14T12:46:37.596Z" agent="Mozilla/5.0 (Windows NT 10.0; Win64; x64) AppleWebKit/537.36 (KHTML, like Gecko) Chrome/114.0.0.0 Safari/537.36" etag="O0o95E4eyKv3aBR-3q8N" version="21.3.7" type="device">
  <diagram name="Страница 1" id="flZc52LiNWzHMUvzN-AP">
    <mxGraphModel dx="934" dy="515" grid="1" gridSize="10" guides="1" tooltips="1" connect="1" arrows="1" fold="1" page="1" pageScale="1" pageWidth="827" pageHeight="1169" background="#ffffff" math="0" shadow="0">
      <root>
        <mxCell id="0" />
        <mxCell id="1" parent="0" />
        <mxCell id="PvrvIEAhj6hiEpOGMwuy-2" value="" style="whiteSpace=wrap;html=1;" parent="1" vertex="1">
          <mxGeometry x="19" y="10" width="790" height="410" as="geometry" />
        </mxCell>
        <mxCell id="xhdU-azrMuqtnT098IMx-1" value="user" style="shape=umlActor;verticalLabelPosition=bottom;verticalAlign=top;html=1;outlineConnect=0;" parent="1" vertex="1">
          <mxGeometry x="690" y="90" width="30" height="60" as="geometry" />
        </mxCell>
        <mxCell id="xhdU-azrMuqtnT098IMx-4" value="" style="whiteSpace=wrap;html=1;" parent="1" vertex="1">
          <mxGeometry x="228.5" y="30" width="371" height="370" as="geometry" />
        </mxCell>
        <mxCell id="xhdU-azrMuqtnT098IMx-5" value="&lt;font style=&quot;font-size: 10px;&quot;&gt;Managing company employees&lt;/font&gt;" style="ellipse;whiteSpace=wrap;html=1;" parent="1" vertex="1">
          <mxGeometry x="241" y="290" width="150" height="100" as="geometry" />
        </mxCell>
        <mxCell id="xhdU-azrMuqtnT098IMx-9" value="&lt;pre style=&quot;&quot;&gt;&lt;span style=&quot;background-color: rgb(255, 255, 255);&quot;&gt;&lt;font style=&quot;font-size: 16px;&quot; face=&quot;Helvetica&quot;&gt;&lt;b&gt;Project management system&lt;/b&gt;&lt;/font&gt;&lt;/span&gt;&lt;/pre&gt;" style="text;html=1;strokeColor=none;fillColor=none;align=center;verticalAlign=middle;whiteSpace=wrap;rounded=0;" parent="1" vertex="1">
          <mxGeometry x="256.88" y="30" width="269.25" height="30" as="geometry" />
        </mxCell>
        <mxCell id="xhdU-azrMuqtnT098IMx-13" value="&lt;font style=&quot;font-size: 10px;&quot;&gt;Management of projects and their life cycle&lt;/font&gt;" style="ellipse;whiteSpace=wrap;html=1;" parent="1" vertex="1">
          <mxGeometry x="241" y="140" width="150" height="100" as="geometry" />
        </mxCell>
        <mxCell id="xhdU-azrMuqtnT098IMx-14" value="&lt;font style=&quot;font-size: 10px;&quot;&gt;Management of tasks within the project and their life cycle&lt;/font&gt;" style="ellipse;whiteSpace=wrap;html=1;" parent="1" vertex="1">
          <mxGeometry x="429.5" y="70" width="150" height="100" as="geometry" />
        </mxCell>
        <mxCell id="xhdU-azrMuqtnT098IMx-15" value="&lt;font style=&quot;font-size: 10px;&quot;&gt;Managing teams within the project&lt;/font&gt;" style="ellipse;whiteSpace=wrap;html=1;" parent="1" vertex="1">
          <mxGeometry x="429.5" y="220" width="150" height="100" as="geometry" />
        </mxCell>
        <mxCell id="xhdU-azrMuqtnT098IMx-21" value="" style="endArrow=open;html=1;rounded=0;dashed=1;endFill=0;exitX=1;exitY=1;exitDx=0;exitDy=0;entryX=0;entryY=0.5;entryDx=0;entryDy=0;" parent="1" source="xhdU-azrMuqtnT098IMx-13" target="xhdU-azrMuqtnT098IMx-15" edge="1">
          <mxGeometry relative="1" as="geometry">
            <mxPoint x="356" y="190" as="sourcePoint" />
            <mxPoint x="456" y="190" as="targetPoint" />
          </mxGeometry>
        </mxCell>
        <mxCell id="xhdU-azrMuqtnT098IMx-22" value="include" style="edgeLabel;resizable=0;html=1;align=center;verticalAlign=middle;" parent="xhdU-azrMuqtnT098IMx-21" connectable="0" vertex="1">
          <mxGeometry relative="1" as="geometry" />
        </mxCell>
        <mxCell id="xhdU-azrMuqtnT098IMx-23" value="" style="endArrow=open;html=1;rounded=0;dashed=1;endFill=0;exitX=1;exitY=0;exitDx=0;exitDy=0;entryX=0;entryY=0.5;entryDx=0;entryDy=0;" parent="1" source="xhdU-azrMuqtnT098IMx-13" target="xhdU-azrMuqtnT098IMx-14" edge="1">
          <mxGeometry relative="1" as="geometry">
            <mxPoint x="371" y="160" as="sourcePoint" />
            <mxPoint x="465" y="192" as="targetPoint" />
          </mxGeometry>
        </mxCell>
        <mxCell id="xhdU-azrMuqtnT098IMx-24" value="include" style="edgeLabel;resizable=0;html=1;align=center;verticalAlign=middle;" parent="xhdU-azrMuqtnT098IMx-23" connectable="0" vertex="1">
          <mxGeometry relative="1" as="geometry" />
        </mxCell>
        <mxCell id="fmxJQeonQKI_m797yTIn-1" value="admin" style="shape=umlActor;verticalLabelPosition=bottom;verticalAlign=top;html=1;outlineConnect=0;" vertex="1" parent="1">
          <mxGeometry x="108" y="310" width="30" height="60" as="geometry" />
        </mxCell>
        <mxCell id="fmxJQeonQKI_m797yTIn-2" value="manager" style="shape=umlActor;verticalLabelPosition=bottom;verticalAlign=top;html=1;outlineConnect=0;" vertex="1" parent="1">
          <mxGeometry x="108" y="160" width="30" height="60" as="geometry" />
        </mxCell>
        <mxCell id="fmxJQeonQKI_m797yTIn-3" style="edgeStyle=orthogonalEdgeStyle;rounded=1;orthogonalLoop=1;jettySize=auto;html=1;exitX=0.5;exitY=0.5;exitDx=0;exitDy=0;exitPerimeter=0;entryX=1;entryY=0.5;entryDx=0;entryDy=0;startArrow=none;startFill=0;endArrow=none;endFill=0;" edge="1" parent="1" source="xhdU-azrMuqtnT098IMx-1" target="xhdU-azrMuqtnT098IMx-14">
          <mxGeometry relative="1" as="geometry" />
        </mxCell>
        <mxCell id="fmxJQeonQKI_m797yTIn-4" style="edgeStyle=orthogonalEdgeStyle;rounded=0;orthogonalLoop=1;jettySize=auto;html=1;exitX=0.5;exitY=0.5;exitDx=0;exitDy=0;exitPerimeter=0;entryX=0;entryY=0.5;entryDx=0;entryDy=0;endArrow=none;endFill=0;" edge="1" parent="1" source="fmxJQeonQKI_m797yTIn-1" target="xhdU-azrMuqtnT098IMx-5">
          <mxGeometry relative="1" as="geometry" />
        </mxCell>
        <mxCell id="fmxJQeonQKI_m797yTIn-5" style="edgeStyle=orthogonalEdgeStyle;rounded=0;orthogonalLoop=1;jettySize=auto;html=1;exitX=0.5;exitY=0.5;exitDx=0;exitDy=0;exitPerimeter=0;entryX=0;entryY=0.5;entryDx=0;entryDy=0;endArrow=none;endFill=0;" edge="1" parent="1" source="fmxJQeonQKI_m797yTIn-2" target="xhdU-azrMuqtnT098IMx-13">
          <mxGeometry relative="1" as="geometry" />
        </mxCell>
      </root>
    </mxGraphModel>
  </diagram>
</mxfile>
